<svg width="32" height="32" viewBox="0 0 32 32" fill="none" xmlns="http://www.w3.org/2000/svg"><path fill-rule="evenodd" clip-rule="evenodd" d="M11.0857 0H20.9143C29.8743 0 32 2.12574 32 11.0857V20.9143C32 29.8743 29.8743 32 20.9143 32H11.0857C2.12574 32 0 29.8743 0 20.9143V11.0857C0 2.12574 2.12574 0 11.0857 0Z" fill="#4680C2"></path><path fill-rule="evenodd" clip-rule="evenodd" d="M26.3589 11.137C26.5097 10.6463 26.3589 10.2858 25.6404 10.2858H23.2649C22.6608 10.2858 22.3825 10.5972 22.2314 10.9406C22.2314 10.9406 21.0233 13.8113 19.312 15.6758C18.7583 16.2156 18.5066 16.3873 18.2046 16.3873C18.0536 16.3873 17.8349 16.2155 17.8349 15.7248V11.137C17.8349 10.5482 17.6597 10.2858 17.1563 10.2858H13.4233C13.0458 10.2858 12.8189 10.5589 12.8189 10.818C12.8189 11.3762 13.6745 11.5048 13.7627 13.0751V16.4854C13.7627 17.2332 13.6242 17.3686 13.3221 17.3686C12.5168 17.3686 10.5579 14.4854 9.39599 11.186C9.16828 10.5448 8.93991 10.2858 8.33288 10.2858H5.95712C5.27834 10.2858 5.14258 10.5972 5.14258 10.9406C5.14258 11.5541 5.94807 14.5964 8.89256 18.6198C10.8555 21.3676 13.6214 22.8572 16.1381 22.8572C17.6481 22.8572 17.8349 22.5264 17.8349 21.9566V19.8798C17.8349 19.2181 17.978 19.0861 18.456 19.0861C18.8084 19.0861 19.4125 19.2577 20.8219 20.5827C22.4326 22.1528 22.6981 22.8572 23.6042 22.8572H25.9796C26.6584 22.8572 26.9978 22.5264 26.8019 21.8735C26.5877 21.2228 25.8188 20.2787 24.7983 19.1596C24.2446 18.5217 23.4141 17.8349 23.1625 17.4913C22.8101 17.0497 22.9107 16.8534 23.1625 16.461C23.1625 16.461 26.0567 12.4863 26.3587 11.137H26.3589Z" fill="white"></path></svg>