<svg width="20" height="20" viewBox="0 0 20 20" xmlns="http://www.w3.org/2000/svg">
<path fill-rule="evenodd" clip-rule="evenodd" fill="#0a66c2" d="M0.504469 6.41311H4.40263V19.9987H0.504469V6.41311ZM2.35419 4.71379H2.32596C0.914864 4.71379 0 3.67525 0 2.3601C0 1.01806 0.94191 0 2.38123 0C3.81938 0 4.70367 1.01549 4.73189 2.35626C4.73189 3.6714 3.81938 4.71379 2.35419 4.71379ZM20 20H15.5797V12.9684C15.5797 11.1282 14.8883 9.87322 13.3678 9.87322C12.2048 9.87322 11.5581 10.7197 11.2571 11.538C11.1442 11.8299 11.1618 12.2384 11.1618 12.6482V20H6.78269C6.78269 20 6.83913 7.54514 6.78269 6.41311H11.1618V8.54527C11.4205 7.61301 12.8198 6.28249 15.0529 6.28249C17.8234 6.28249 20 8.23793 20 12.4446V20Z"></path>
</svg>
