<svg width="32" height="32" viewBox="0 0 32 32" fill="none" xmlns="http://www.w3.org/2000/svg"><path d="M16 32C24.8366 32 32 24.8366 32 16C32 7.16344 24.8366 0 16 0C7.16344 0 0 7.16344 0 16C0 24.8366 7.16344 32 16 32Z" fill="#1DA1F2"></path><path d="M13.072 24.44C20.168 24.44 24.048 18.56 24.048 13.464C24.048 13.296 24.048 13.128 24.04 12.968C24.792 12.424 25.448 11.744 25.968 10.968C25.28 11.272 24.536 11.48 23.752 11.576C24.552 11.096 25.16 10.344 25.448 9.43997C24.704 9.87997 23.88 10.2 23 10.376C22.296 9.62397 21.296 9.15997 20.184 9.15997C18.056 9.15997 16.328 10.888 16.328 13.016C16.328 13.32 16.36 13.616 16.432 13.896C13.224 13.736 10.384 12.2 8.48002 9.86397C8.15202 10.432 7.96003 11.096 7.96003 11.8C7.96003 13.136 8.64002 14.32 9.68002 15.008C9.04802 14.992 8.45602 14.816 7.93602 14.528C7.93602 14.544 7.93602 14.56 7.93602 14.576C7.93602 16.448 9.26402 18 11.032 18.36C10.712 18.448 10.368 18.496 10.016 18.496C9.76802 18.496 9.52802 18.472 9.28802 18.424C9.77602 19.96 11.2 21.072 12.888 21.104C11.568 22.136 9.90402 22.752 8.09602 22.752C7.78402 22.752 7.48003 22.736 7.17603 22.696C8.86402 23.8 10.896 24.44 13.072 24.44Z" fill="white"></path></svg>