<svg class="svg-ico-google-plus" width="20" height="20" viewBox="0 0 20 20" xmlns="http://www.w3.org/2000/svg"><path fill-rule="evenodd" clip-rule="evenodd" d="M2.71535 8.4746C1.61769 7.76752 1.06105 6.5643 1.06105 4.8975C1.06105 0.191722 6.19915 0.00133915 6.25071 0H11.3828V0.11115C11.3828 0.658179 10.4503 0.783538 9.7531 0.877275L9.64836 0.891428C9.60677 0.897186 9.55773 0.903486 9.50441 0.910336C9.25388 0.942524 8.90881 0.986859 8.79711 1.04409C10.0963 1.73666 10.3072 2.82829 10.3072 4.45469C10.3072 6.30472 9.58274 7.28342 8.81385 7.97107L8.81211 7.97263C8.3382 8.39707 7.96371 8.73248 7.96371 9.17854C7.96371 9.61689 8.47772 10.0677 9.07275 10.5896L9.07458 10.5912C10.0493 11.4479 11.3828 12.6198 11.3828 14.5883C11.3828 16.6265 10.5061 18.0848 8.77858 18.9238C7.4468 19.5712 6.01257 19.6409 5.45771 19.6409C5.3771 19.6409 5.32195 19.6394 5.29628 19.6388H5.29621H5.29617L5.28117 19.6384C5.28117 19.6384 5.24166 19.6398 5.17403 19.6398C4.30961 19.6398 0 19.4405 0 15.5156C0 11.6582 4.69216 11.3578 6.13086 11.3573L6.16835 11.3578C5.33808 10.2496 5.51016 9.13011 5.51016 9.13011C5.43628 9.13502 5.33094 9.13993 5.19925 9.13993C4.65734 9.13993 3.6137 9.05355 2.71535 8.4746ZM6.0851 17.8299C8.10075 17.6833 9.44325 16.5251 9.34527 14.9554C9.25242 13.477 7.96907 12.3635 6.07439 12.3635C5.95967 12.3635 5.84473 12.3682 5.72867 12.3755C4.7464 12.4481 3.84359 12.8152 3.18584 13.4109C2.53747 13.9984 2.20625 14.7371 2.25379 15.4902C2.35177 17.0577 4.03754 17.9794 6.0851 17.8299ZM8.00522 3.8235C8.50874 5.5943 7.74855 7.44568 6.53707 7.78716C6.39802 7.82622 6.25361 7.84631 6.10809 7.84631C4.99816 7.84631 3.89849 6.72343 3.49117 5.17694C3.26351 4.30783 3.28181 3.54853 3.54295 2.81824C3.79962 2.09979 4.26051 1.61457 4.84059 1.45142C4.98008 1.41191 5.12471 1.39182 5.27001 1.39182C6.61027 1.3916 7.47179 1.94735 8.00522 3.8235ZM16.6521 4.33215V7.68003H20V9.80035H16.6521V13.1482H14.5318V9.80035H11.1839V7.68003H14.5318V4.33215H16.6521Z"></path></svg>